HIERARCHY
ROOT Hips
{
	OFFSET 0.000000 0.000000 0.000000 
	CHANNELS 6 Xposition Yposition Zposition Yrotation Zrotation Xrotation 
	JOINT Lumbar
	{
		OFFSET 0.000000 0.000000 0.000000 
		CHANNELS 3 Zrotation Xrotation Yrotation
		JOINT Neck
		{
			OFFSET 0.000000 0.445665 0.000000 
			CHANNELS 3 Zrotation Xrotation Yrotation
			End Site
			{
				OFFSET 0.000000 0.227535 0.000000 
			}
		}
		JOINT RightShoulder
		{
			OFFSET 0.019635 0.377685 0.194865 
			CHANNELS 3 Zrotation Xrotation Yrotation
			JOINT RightElbow
			{
				OFFSET 0.000000 -0.243375 0.000000 
				CHANNELS 2 Zrotation Yrotation
				JOINT RightWrist
				{
					OFFSET 0.000000 -0.264825 0.000000 
					CHANNELS 2 Zrotation Xrotation
					End Site
					{
						OFFSET 0.006600 -0.176220 0.000990 
					}
				}
			}
		}
		JOINT LeftShoulder
		{
			OFFSET 0.019635 0.377685 -0.194865 
			CHANNELS 3 Zrotation Xrotation Yrotation
			JOINT LeftElbow
			{
				OFFSET 0.000000 -0.243375 0.000000 
				CHANNELS 2 Zrotation Yrotation
				JOINT LeftWrist
				{
					OFFSET 0.000000 -0.264825 0.000000 
					CHANNELS 2 Zrotation Xrotation
					End Site
					{
						OFFSET 0.006600 -0.176220 -0.000990 
					}
				}
			}
		}
	}
	JOINT RightHip
	{
		OFFSET 0.052140 -0.069960 0.075570 
		CHANNELS 3 Zrotation Xrotation Yrotation
		JOINT RightKnee
		{
			OFFSET 0.000000 -0.402270 0.000000 
			CHANNELS 1 Zrotation
			JOINT RightAnkle
			{
				OFFSET 0.000000 -0.404085 0.000000 
				CHANNELS 3 Zrotation Xrotation Yrotation
				End Site
				{
					OFFSET 0.204105 -0.089430 0.008415 
				}
			}
		}
	}
	JOINT LeftHip
	{
		OFFSET 0.052140 -0.069960 -0.075570 
		CHANNELS 3 Zrotation Xrotation Yrotation
		JOINT LeftKnee
		{
			OFFSET 0.000000 -0.402270 0.000000 
			CHANNELS 1 Zrotation
			JOINT LeftAnkle
			{
				OFFSET 0.000000 -0.404085 0.000000 
				CHANNELS 3 Zrotation Xrotation Yrotation
				End Site
				{
					OFFSET 0.204105 -0.089430 -0.008415 
				}
			}
		}
	}
}
MOTION
Frames: 19
Frame Time: 0.02
0.07128 0.02705 -0.37553 -59.57844 -25.1189 11.81234 33.74964 1.39874 -2.41208 -5.7647 -6.79087 -0.83079 -35.49745 -10.70205 -22.63702 48.27134 87.16988 2.42302 0.37048 -6.14852 12.11695 2.09162 122.04302 -83.98481 4.43981 2.20173 35.22995 -4.65493 -0.49865 -21.12996 -7.04289 -2.40119 -1.85827 48.43595 2.8602 2.11989 -37.82643 -8.27836 3.50914 2.52489
0.07564 0.02808 -0.37313 -61.42491 -25.56191 12.05354 33.58313 1.55287 -2.79783 -5.69202 -6.92545 -0.83079 -33.37978 -11.16918 -21.99851 48.40454 87.13061 2.42217 0.34745 -6.20448 11.86044 1.77067 122.18046 -84.86784 4.71146 1.91231 35.44489 -4.72299 1.07796 -21.20477 -7.02934 -2.36037 -1.83905 47.91067 2.53287 2.74176 -35.49463 -8.19626 3.37835 2.45236
0.08065 0.02854 -0.37009 -63.3304 -25.92011 12.15927 33.53504 1.70263 -3.46326 -5.77165 -6.85657 -0.83079 -30.80206 -11.58099 -21.33253 48.06469 87.05807 2.38726 0.32959 -6.43427 11.44969 1.65756 122.34884 -86.08611 5.06787 1.51092 35.61957 -4.65941 2.9646 -21.48791 -6.99286 -2.36952 -1.84779 47.09937 2.36654 3.14569 -33.6645 -8.17755 3.27579 2.40252
0.08538 0.02923 -0.3674 -65.17064 -26.30936 12.33617 33.43757 1.83855 -4.01851 -5.78244 -6.87299 -0.83079 -28.46939 -11.98864 -20.69483 47.96083 86.98234 2.35292 0.30788 -6.5539 11.12686 1.43825 122.50078 -87.10002 5.36807 1.17603 35.84293 -4.6777 4.64144 -21.73687 -6.96786 -2.35165 -1.84126 46.4277 2.12106 3.67071 -31.63778 -8.12708 3.16172 2.34272
0.09009 0.03008 -0.36449 -67.17699 -26.73419 12.47714 33.32713 2.03992 -4.50997 -5.79415 -6.92716 -0.83079 -25.97503 -12.51715 -19.98693 47.79583 86.97614 2.37624 0.29178 -6.8171 10.72417 1.27894 122.66454 -88.34665 5.74812 0.76821 35.94288 -4.60956 6.60697 -21.73463 -6.93857 -2.35003 -1.84443 45.70331 1.90181 4.12008 -29.44174 -8.09072 3.04095 2.28089
0.09497 0.03045 -0.36187 -68.84931 -27.06135 12.65607 33.26798 2.10528 -5.19484 -5.83972 -6.84799 -0.83079 -23.71728 -12.78151 -19.42219 47.63051 86.82131 2.27431 0.26526 -6.81662 10.45152 1.03822 122.81458 -89.18515 5.9795 0.49092 36.28407 -4.68599 8.0424 -22.29896 -6.91277 -2.32764 -1.83475 45.02317 1.66793 4.66285 -27.73109 -8.0398 2.94151 2.22903
0.10028 0.02958 -0.36024 -69.59105 -27.16361 13.00912 33.34243 1.78612 -6.38119 -5.9346 -6.49284 -0.83079 -22.15969 -12.33443 -19.23617 47.63661 86.24929 1.82271 0.21228 -6.06139 10.59258 0.54398 122.86746 -88.78982 5.78423 0.57256 37.3554 -5.21378 7.98024 -24.43095 -6.90132 -2.23014 -1.77951 44.56383 1.32848 5.5877 -27.24582 -7.92829 2.89119 2.19726
0.10571 0.02826 -0.35892 -69.99252 -27.16631 13.39808 33.46048 1.33232 -7.7448 -6.05914 -6.0017 -0.83079 -20.86868 -11.6233 -19.20141 47.64381 85.53185 1.24853 0.14857 -5.03039 10.867 -0.04469 122.91444 -87.97501 5.43394 0.7968 38.66076 -5.88703 7.36846 -27.1145 -6.89422 -2.11143 -1.71122 44.15637 0.97339 6.59959 -27.23582 -7.80057 2.86199 2.17513
0.11102 0.02719 -0.35744 -70.54582 -27.1979 13.74674 33.5436 0.94664 -9.00367 -6.17419 -5.54501 -0.83079 -19.49958 -11.03031 -19.11064 47.61178 84.89256 0.73974 0.08692 -4.11363 11.07092 -0.60585 122.99676 -87.36582 5.15214 0.97354 39.82358 -6.48017 6.97958 -29.51208 -6.88575 -2.006 -1.65101 43.70751 0.64153 7.52324 -27.0082 -7.68313 2.82517 2.14991
0.11668 0.02592 -0.35604 -71.11496 -27.29341 14.19206 33.69255 0.53096 -10.37619 -6.27778 -5.19838 -0.83079 -17.93354 -10.44217 -18.95804 47.73205 84.20389 0.19111 0.03532 -3.24965 11.3135 -1.09457 122.94136 -86.70373 4.88556 1.06755 41.13799 -7.12867 6.70843 -32.0721 -6.87423 -1.88613 -1.58221 43.32053 0.24609 8.64381 -26.80341 -7.55553 2.78108 2.1201
0.12159 0.02496 -0.35454 -71.56718 -27.23599 14.44616 33.71594 0.14657 -11.54829 -6.41028 -4.59084 -0.83079 -16.84579 -9.78322 -18.9794 47.5353 83.58042 -0.30608 -0.03732 -2.20828 11.50627 -1.75932 123.1723 -86.04981 4.54446 1.37634 42.19246 -7.69715 6.0656 -34.41436 -6.87002 -1.79166 -1.52844 42.82467 -0.02124 9.37919 -26.65861 -7.44458 2.75663 2.10176
0.12453 0.02491 -0.35278 -71.79836 -26.75713 14.16576 33.35782 -0.12461 -12.14049 -6.61437 -3.31519 -0.83079 -17.0275 -8.9833 -19.36741 46.51808 83.205 -0.60588 -0.18812 -0.74262 11.55639 -2.88621 124.18161 -85.51713 4.06942 2.17761 42.47349 -8.01839 4.46108 -36.08317 -6.88862 -1.76362 -1.51411 41.9844 0.05537 9.01685 -26.55364 -7.38173 2.78244 2.11327
0.12666 0.02518 -0.35091 -71.91928 -26.13254 13.69212 32.87589 -0.35844 -12.52049 -6.84585 -1.78003 -0.83079 -17.68143 -8.12373 -19.93894 45.17501 82.89531 -0.85414 -0.35641 0.89087 11.5482 -4.18642 125.48007 -85.01704 3.51295 3.1989 42.48399 -8.25349 2.51373 -37.49976 -6.91404 -1.76326 -1.51616 41.04028 0.2631 8.26717 -26.49223 -7.33621 2.82688 2.13575
0.12907 0.02532 -0.34907 -72.07893 -25.59057 13.30584 32.46569 -0.60542 -12.98487 -7.06475 -0.35108 -0.83079 -18.11194 -7.29795 -20.47793 43.94572 82.53316 -1.14253 -0.50076 2.44934 11.54848 -5.41123 126.65706 -84.48902 2.97743 4.16827 42.61849 -8.52194 0.76659 -38.99115 -6.93382 -1.75583 -1.51408 40.1653 0.41905 7.70444 -26.41445 -7.28362 2.86189 2.15275
0.13189 0.02541 -0.34733 -72.27708 -24.97612 12.92182 31.99119 -0.87349 -13.50569 -7.28567 1.03691 -0.83079 -18.58727 -6.43337 -20.81075 42.85603 82.25724 -1.36501 -0.70939 4.01911 11.62631 -6.63242 127.79857 -83.95718 2.5249 4.95623 42.75984 -8.81782 -1.19018 -40.67514 -6.96374 -1.72453 -1.49773 39.1984 0.54196 7.09904 -26.33825 -7.22712 2.90184 2.17225
0.13364 0.02567 -0.34533 -72.37039 -24.47904 12.48782 31.62138 -1.08669 -13.85725 -7.50805 2.56543 -0.83079 -19.07974 -5.64058 -21.61048 41.40448 81.82427 -1.71051 -0.79265 5.59274 11.53098 -7.8918 129.07437 -83.50261 1.8564 6.15159 42.81569 -9.03678 -2.78061 -41.88444 -6.975 -1.74964 -1.51496 38.39877 0.76456 6.48876 -26.26393 -7.18307 2.93548 2.18893
0.13269 0.02633 -0.34271 -72.22736 -24.34545 11.95398 31.56479 -1.15966 -13.78268 -7.73144 4.4567 -0.83079 -19.48859 -5.04711 -23.68824 38.98268 80.89921 -2.41034 -0.48592 7.21106 10.93795 -9.29162 130.72232 -82.75517 0.84435 8.59933 42.73454 -9.04161 -3.30693 -41.8971 -6.92545 -1.92478 -1.62257 38.07797 1.23445 5.96522 -26.17196 -7.16934 2.9484 2.19596
0.13067 0.02714 -0.33981 -71.97952 -24.33514 11.37816 31.61917 -1.17773 -13.54592 -7.95468 6.47204 -0.83079 -19.90008 -4.53153 -26.22142 36.21918 79.82252 -3.23403 -0.05918 8.81215 10.17875 -10.70755 132.48228 -82.16583 -0.41657 11.41689 42.56973 -8.97539 -3.44383 -41.42883 -6.85827 -2.15537 -1.76305 37.93085 1.79961 5.44874 -26.0803 -7.1676 2.95395 2.19955
0.12911 0.02786 -0.33701 -71.76406 -24.2661 10.82718 31.62599 -1.21871 -13.38983 -8.17514 8.40553 -0.83079 -20.31905 -3.99084 -28.52472 33.64332 78.8437 -3.99996 0.28603 10.37039 9.5166 -12.06671 134.14336 -81.85026 -1.72616 13.94303 42.41996 -8.9561 -3.73608 -41.14266 -6.80417 -2.36031 -1.88761 37.70901 2.3183 4.92499 -25.99395 -7.16031 2.96195 2.20412
